<svg width="73" height="18" viewBox="0 0 73 18" fill="none" xmlns="http://www.w3.org/2000/svg">
<path d="M14.224 0.260732C14.1407 0.101188 13.9756 0 13.7955 0H6.72992C6.51625 0 6.32795 0.141421 6.26681 0.346092L3.74286 8.80412C3.69918 8.95043 3.72721 9.10792 3.81843 9.23032C3.90965 9.35277 4.05337 9.42405 4.20596 9.42405H8.16763L6.57164 17.4212C6.52519 17.6538 6.65434 17.8862 6.87653 17.9691C6.93193 17.9898 6.98908 18 7.04544 18C7.21495 18 7.37746 17.9106 7.46554 17.7559L13.6896 6.82597C13.7748 6.67634 13.774 6.49172 13.6875 6.34287C13.601 6.19402 13.4418 6.10147 13.2697 6.10147H10.4671L14.1919 0.760267C14.2949 0.612563 14.3073 0.420397 14.224 0.260732Z" fill="#5D6C7B"/>
<path d="M32.9834 14H31.7119V5.57129L29.1621 6.50781V5.35938L32.7852 3.99902H32.9834V14ZM36.7773 15.9824L36.0596 15.4902C36.488 14.8932 36.7113 14.278 36.7295 13.6445V12.5029H37.9668V13.4941C37.9668 13.9544 37.8529 14.4147 37.625 14.875C37.4017 15.3353 37.1191 15.7044 36.7773 15.9824ZM45.958 14H39.4365V13.0908L42.8818 9.2627C43.3923 8.68392 43.7432 8.21452 43.9346 7.85449C44.1305 7.48991 44.2285 7.11393 44.2285 6.72656C44.2285 6.20703 44.0713 5.78092 43.7568 5.44824C43.4424 5.11556 43.0231 4.94922 42.499 4.94922C41.8701 4.94922 41.3802 5.12923 41.0293 5.48926C40.6829 5.84473 40.5098 6.34147 40.5098 6.97949H39.2451C39.2451 6.06348 39.5391 5.32292 40.127 4.75781C40.7194 4.19271 41.5101 3.91016 42.499 3.91016C43.4242 3.91016 44.1556 4.15397 44.6934 4.6416C45.2311 5.12467 45.5 5.76953 45.5 6.57617C45.5 7.55599 44.8757 8.72266 43.627 10.0762L40.9609 12.9678H45.958V14ZM56.9639 6.60352V14H55.6924V7.64941H53.1768L53.0264 10.418C52.9443 11.6895 52.7301 12.5986 52.3838 13.1455C52.042 13.6924 51.4974 13.9772 50.75 14H50.2441V12.8857L50.6064 12.8584C51.0166 12.8128 51.3105 12.5758 51.4883 12.1475C51.666 11.7191 51.7799 10.9261 51.8301 9.76855L51.9668 6.60352H56.9639ZM59.0215 13.3369C59.0215 13.1182 59.0853 12.9359 59.2129 12.79C59.3451 12.6442 59.541 12.5713 59.8008 12.5713C60.0605 12.5713 60.2565 12.6442 60.3887 12.79C60.5254 12.9359 60.5938 13.1182 60.5938 13.3369C60.5938 13.5465 60.5254 13.722 60.3887 13.8633C60.2565 14.0046 60.0605 14.0752 59.8008 14.0752C59.541 14.0752 59.3451 14.0046 59.2129 13.8633C59.0853 13.722 59.0215 13.5465 59.0215 13.3369ZM65.6523 13.1045C66.1035 13.1045 66.4977 12.9678 66.835 12.6943C67.1722 12.4209 67.359 12.0791 67.3955 11.6689H68.5918C68.569 12.0928 68.4232 12.4961 68.1543 12.8789C67.8854 13.2617 67.5254 13.5671 67.0742 13.7949C66.6276 14.0228 66.1536 14.1367 65.6523 14.1367C64.6452 14.1367 63.8431 13.8018 63.2461 13.1318C62.6536 12.4574 62.3574 11.5368 62.3574 10.3701V10.1582C62.3574 9.43815 62.4896 8.79785 62.7539 8.2373C63.0182 7.67676 63.3965 7.24154 63.8887 6.93164C64.3854 6.62174 64.971 6.4668 65.6455 6.4668C66.4749 6.4668 67.1631 6.71517 67.71 7.21191C68.2614 7.70866 68.5553 8.35352 68.5918 9.14648H67.3955C67.359 8.66797 67.1768 8.27604 66.8486 7.9707C66.5251 7.66081 66.124 7.50586 65.6455 7.50586C65.0029 7.50586 64.5039 7.73828 64.1484 8.20312C63.7975 8.66341 63.6221 9.33105 63.6221 10.2061V10.4453C63.6221 11.2975 63.7975 11.9538 64.1484 12.4141C64.4993 12.8743 65.0007 13.1045 65.6523 13.1045ZM70.041 13.3369C70.041 13.1182 70.1048 12.9359 70.2324 12.79C70.3646 12.6442 70.5605 12.5713 70.8203 12.5713C71.0801 12.5713 71.276 12.6442 71.4082 12.79C71.5449 12.9359 71.6133 13.1182 71.6133 13.3369C71.6133 13.5465 71.5449 13.722 71.4082 13.8633C71.276 14.0046 71.0801 14.0752 70.8203 14.0752C70.5605 14.0752 70.3646 14.0046 70.2324 13.8633C70.1048 13.722 70.041 13.5465 70.041 13.3369Z" fill="#5D6C7B"/>
</svg>
