<svg width="93" height="18" viewBox="0 0 93 18" fill="none" xmlns="http://www.w3.org/2000/svg">
<path d="M16.5 3.75001V2.99999C16.5 2.58655 16.1638 2.25 15.75 2.25H13.5C13.0862 2.25 12.75 2.58655 12.75 2.99999V3.74998H12.5303L12.2198 3.43944C11.9407 3.16002 11.554 2.99999 11.1592 2.99999H6.84081C6.44604 2.99999 6.05932 3.16002 5.78025 3.43944L5.46971 3.74998H5.24999V2.99999C5.24999 2.58655 4.91382 2.25 4.5 2.25H2.25C1.83618 2.25 1.50001 2.58655 1.50001 2.99999V3.74998C0.673102 3.75001 0 4.42273 0 5.24999V14.25C0 15.0773 0.673102 15.75 1.50001 15.75H16.5C17.3269 15.75 18 15.0773 18 14.25V5.24999C18 4.42273 17.3269 3.75001 16.5 3.75001ZM4.12499 7.49999H2.62501C2.41773 7.49999 2.25 7.33226 2.25 7.12498C2.25 6.91773 2.41773 6.75 2.62501 6.75H4.12502C4.3323 6.75 4.50004 6.91773 4.50004 7.12501C4.5 7.33229 4.33227 7.49999 4.12499 7.49999ZM15.375 7.49999H15V7.875C15 8.08228 14.8322 8.25001 14.625 8.25001C14.4177 8.25001 14.25 8.08228 14.25 7.875V7.49999H13.8749C13.6677 7.49999 13.4999 7.33226 13.4999 7.12498C13.4999 6.9177 13.6677 6.74996 13.8749 6.74996H14.25V6.37495C14.25 6.16767 14.4177 5.99994 14.625 5.99994C14.8322 5.99994 15 6.16767 15 6.37495V6.75H15.375C15.5823 6.75 15.75 6.91773 15.75 7.12501C15.75 7.33229 15.5823 7.49999 15.375 7.49999Z" fill="#5D6C7B"/>
<path d="M35.3486 14H28.8271V13.0908L32.2725 9.2627C32.7829 8.68392 33.1338 8.21452 33.3252 7.85449C33.5212 7.48991 33.6191 7.11393 33.6191 6.72656C33.6191 6.20703 33.4619 5.78092 33.1475 5.44824C32.833 5.11556 32.4137 4.94922 31.8896 4.94922C31.2607 4.94922 30.7708 5.12923 30.4199 5.48926C30.0736 5.84473 29.9004 6.34147 29.9004 6.97949H28.6357C28.6357 6.06348 28.9297 5.32292 29.5176 4.75781C30.11 4.19271 30.9007 3.91016 31.8896 3.91016C32.8148 3.91016 33.5462 4.15397 34.084 4.6416C34.6217 5.12467 34.8906 5.76953 34.8906 6.57617C34.8906 7.55599 34.2663 8.72266 33.0176 10.0762L30.3516 12.9678H35.3486V14ZM42.9297 9.75488C42.9297 11.236 42.6768 12.3366 42.1709 13.0566C41.665 13.7767 40.8743 14.1367 39.7988 14.1367C38.737 14.1367 37.9508 13.7858 37.4404 13.084C36.93 12.3776 36.6657 11.3249 36.6475 9.92578V8.2373C36.6475 6.77441 36.9004 5.6875 37.4062 4.97656C37.9121 4.26562 38.7051 3.91016 39.7852 3.91016C40.8561 3.91016 41.6445 4.25423 42.1504 4.94238C42.6562 5.62598 42.916 6.68327 42.9297 8.11426V9.75488ZM41.665 8.02539C41.665 6.95443 41.5146 6.17513 41.2139 5.6875C40.9131 5.19531 40.4368 4.94922 39.7852 4.94922C39.138 4.94922 38.6663 5.19303 38.3701 5.68066C38.0739 6.16829 37.9212 6.91797 37.9121 7.92969V9.95312C37.9121 11.0286 38.0671 11.8239 38.377 12.3389C38.6914 12.8493 39.1654 13.1045 39.7988 13.1045C40.4232 13.1045 40.8857 12.863 41.1865 12.3799C41.4919 11.8968 41.6514 11.1357 41.665 10.0967V8.02539ZM50.791 9.75488C50.791 11.236 50.5381 12.3366 50.0322 13.0566C49.5264 13.7767 48.7357 14.1367 47.6602 14.1367C46.5983 14.1367 45.8122 13.7858 45.3018 13.084C44.7913 12.3776 44.527 11.3249 44.5088 9.92578V8.2373C44.5088 6.77441 44.7617 5.6875 45.2676 4.97656C45.7734 4.26562 46.5664 3.91016 47.6465 3.91016C48.7174 3.91016 49.5059 4.25423 50.0117 4.94238C50.5176 5.62598 50.7773 6.68327 50.791 8.11426V9.75488ZM49.5264 8.02539C49.5264 6.95443 49.376 6.17513 49.0752 5.6875C48.7744 5.19531 48.2982 4.94922 47.6465 4.94922C46.9993 4.94922 46.5277 5.19303 46.2314 5.68066C45.9352 6.16829 45.7826 6.91797 45.7734 7.92969V9.95312C45.7734 11.0286 45.9284 11.8239 46.2383 12.3389C46.5527 12.8493 47.0267 13.1045 47.6602 13.1045C48.2845 13.1045 48.7471 12.863 49.0479 12.3799C49.3532 11.8968 49.5127 11.1357 49.5264 10.0967V8.02539ZM58.6523 9.75488C58.6523 11.236 58.3994 12.3366 57.8936 13.0566C57.3877 13.7767 56.597 14.1367 55.5215 14.1367C54.4596 14.1367 53.6735 13.7858 53.1631 13.084C52.6527 12.3776 52.3883 11.3249 52.3701 9.92578V8.2373C52.3701 6.77441 52.623 5.6875 53.1289 4.97656C53.6348 4.26562 54.4277 3.91016 55.5078 3.91016C56.5788 3.91016 57.3672 4.25423 57.873 4.94238C58.3789 5.62598 58.6387 6.68327 58.6523 8.11426V9.75488ZM57.3877 8.02539C57.3877 6.95443 57.2373 6.17513 56.9365 5.6875C56.6357 5.19531 56.1595 4.94922 55.5078 4.94922C54.8607 4.94922 54.389 5.19303 54.0928 5.68066C53.7965 6.16829 53.6439 6.91797 53.6348 7.92969V9.95312C53.6348 11.0286 53.7897 11.8239 54.0996 12.3389C54.4141 12.8493 54.888 13.1045 55.5215 13.1045C56.1458 13.1045 56.6084 12.863 56.9092 12.3799C57.2145 11.8968 57.374 11.1357 57.3877 10.0967V8.02539ZM65.0645 6.60352L65.0986 7.42383C65.641 6.78581 66.3724 6.4668 67.293 6.4668C68.3275 6.4668 69.0316 6.86328 69.4053 7.65625C69.6514 7.30078 69.9704 7.01367 70.3623 6.79492C70.7588 6.57617 71.2259 6.4668 71.7637 6.4668C73.3861 6.4668 74.2109 7.32585 74.2383 9.04395V14H72.9736V9.11914C72.9736 8.59049 72.8529 8.19629 72.6113 7.93652C72.3698 7.6722 71.9642 7.54004 71.3945 7.54004C70.9251 7.54004 70.5355 7.68132 70.2256 7.96387C69.9157 8.24186 69.7357 8.61784 69.6855 9.0918V14H68.4141V9.15332C68.4141 8.0778 67.8877 7.54004 66.835 7.54004C66.0055 7.54004 65.4382 7.89323 65.1328 8.59961V14H63.8682V6.60352H65.0645ZM81.8467 11.4023H77.6768L76.7402 14H75.3867L79.1875 4.04688H80.3359L84.1436 14H82.7969L81.8467 11.4023ZM78.0732 10.3223H81.457L79.7617 5.66699L78.0732 10.3223ZM86.5498 7.49902C87.1104 6.81087 87.8395 6.4668 88.7373 6.4668C90.3005 6.4668 91.0889 7.34863 91.1025 9.1123V14H89.8379V9.10547C89.8333 8.57227 89.7103 8.17806 89.4688 7.92285C89.2318 7.66764 88.8604 7.54004 88.3545 7.54004C87.9443 7.54004 87.5843 7.64941 87.2744 7.86816C86.9645 8.08691 86.723 8.37402 86.5498 8.72949V14H85.2852V3.5H86.5498V7.49902Z" fill="#5D6C7B"/>
</svg>
