<svg width="78" height="18" viewBox="0 0 78 18" fill="none" xmlns="http://www.w3.org/2000/svg">
<g clip-path="url(#clip0_3656_9132)">
<path d="M14.4525 5.35819L15.5303 4.28044L14.4698 3.21956L13.3168 4.3725C12.2636 3.62609 11.0345 3.16607 9.75 3.0375V1.5H11.25V0H6.75V1.5H8.25V3.0375C6.96551 3.16607 5.73644 3.62609 4.68319 4.3725L3.53025 3.21956L2.46975 4.28044L3.5475 5.35819C2.54149 6.42334 1.86948 7.75982 1.61448 9.20259C1.35947 10.6454 1.53263 12.1312 2.11257 13.4767C2.69252 14.8222 3.65384 15.9683 4.87783 16.7736C6.10182 17.5788 7.53487 18.008 9 18.008C10.4651 18.008 11.8982 17.5788 13.1222 16.7736C14.3462 15.9683 15.3075 14.8222 15.8874 13.4767C16.4674 12.1312 16.6405 10.6454 16.3855 9.20259C16.1305 7.75982 15.4585 6.42334 14.4525 5.35819ZM9 16.5C7.81332 16.5 6.65328 16.1481 5.66658 15.4888C4.67989 14.8295 3.91085 13.8925 3.45673 12.7961C3.0026 11.6997 2.88378 10.4933 3.11529 9.32946C3.3468 8.16557 3.91825 7.09647 4.75736 6.25736C5.59648 5.41824 6.66558 4.8468 7.82946 4.61529C8.99335 4.38378 10.1997 4.5026 11.2961 4.95672C12.3925 5.41085 13.3295 6.17988 13.9888 7.16658C14.6481 8.15327 15 9.31331 15 10.5C14.9982 12.0908 14.3655 13.6158 13.2407 14.7407C12.1158 15.8655 10.5908 16.4982 9 16.5Z" fill="#5D6C7B"/>
<path d="M9 6V10.5H4.5C4.5 11.39 4.76392 12.26 5.25839 13.0001C5.75285 13.7401 6.45566 14.3169 7.27792 14.6575C8.10019 14.9981 9.00499 15.0872 9.87791 14.9135C10.7508 14.7399 11.5526 14.3113 12.182 13.682C12.8113 13.0526 13.2399 12.2508 13.4135 11.3779C13.5872 10.505 13.4981 9.60019 13.1575 8.77792C12.8169 7.95566 12.2401 7.25285 11.5001 6.75839C10.76 6.26392 9.89002 6 9 6Z" fill="#5D6C7B"/>
</g>
<path d="M29.4082 9.00977L29.9141 4.04688H35.0137V5.21582H30.9873L30.6865 7.92969C31.1742 7.64258 31.7279 7.49902 32.3477 7.49902C33.2546 7.49902 33.9746 7.7998 34.5078 8.40137C35.041 8.99837 35.3076 9.80729 35.3076 10.8281C35.3076 11.8535 35.0296 12.6624 34.4736 13.2549C33.9222 13.8428 33.1497 14.1367 32.1562 14.1367C31.2767 14.1367 30.5589 13.8929 30.0029 13.4053C29.4469 12.9176 29.1302 12.2432 29.0527 11.3818H30.249C30.3265 11.9515 30.5293 12.3822 30.8574 12.6738C31.1855 12.9609 31.6185 13.1045 32.1562 13.1045C32.7441 13.1045 33.2044 12.904 33.5371 12.5029C33.8743 12.1019 34.043 11.5482 34.043 10.8418C34.043 10.1764 33.8607 9.64323 33.4961 9.24219C33.1361 8.83659 32.6553 8.63379 32.0537 8.63379C31.5023 8.63379 31.0693 8.75456 30.7549 8.99609L30.4199 9.26953L29.4082 9.00977ZM45.876 14H44.6045V11.3203C44.0485 11.4661 43.4788 11.5391 42.8955 11.5391C41.9704 11.5391 41.264 11.3021 40.7764 10.8281C40.2933 10.3542 40.0472 9.67969 40.0381 8.80469V6.59668H41.3027V8.8457C41.3255 9.94857 41.8564 10.5 42.8955 10.5C43.4788 10.5 44.0485 10.4271 44.6045 10.2812V6.60352H45.876V14ZM52.4727 14C52.3997 13.8542 52.3405 13.5944 52.2949 13.2207C51.707 13.8314 51.0052 14.1367 50.1895 14.1367C49.4603 14.1367 48.861 13.9316 48.3916 13.5215C47.9268 13.1068 47.6943 12.5827 47.6943 11.9492C47.6943 11.179 47.986 10.582 48.5693 10.1582C49.1572 9.72982 49.9821 9.51562 51.0439 9.51562H52.2744V8.93457C52.2744 8.49251 52.1423 8.1416 51.8779 7.88184C51.6136 7.61751 51.224 7.48535 50.709 7.48535C50.2578 7.48535 49.8796 7.59928 49.5742 7.82715C49.2689 8.05501 49.1162 8.33073 49.1162 8.6543H47.8447C47.8447 8.28516 47.9746 7.92969 48.2344 7.58789C48.4987 7.24154 48.8542 6.9681 49.3008 6.76758C49.752 6.56706 50.2464 6.4668 50.7842 6.4668C51.6364 6.4668 52.304 6.68099 52.7871 7.10938C53.2702 7.5332 53.5208 8.11882 53.5391 8.86621V12.2705C53.5391 12.9495 53.6257 13.4896 53.7988 13.8906V14H52.4727ZM50.374 13.0361C50.7705 13.0361 51.1465 12.9336 51.502 12.7285C51.8574 12.5234 52.1149 12.2568 52.2744 11.9287V10.4111H51.2832C49.7337 10.4111 48.959 10.8646 48.959 11.7715C48.959 12.168 49.0911 12.4779 49.3555 12.7012C49.6198 12.9245 49.9593 13.0361 50.374 13.0361ZM58.4883 13.1045C58.9395 13.1045 59.3337 12.9678 59.6709 12.6943C60.0081 12.4209 60.195 12.0791 60.2314 11.6689H61.4277C61.4049 12.0928 61.2591 12.4961 60.9902 12.8789C60.7214 13.2617 60.3613 13.5671 59.9102 13.7949C59.4635 14.0228 58.9896 14.1367 58.4883 14.1367C57.4811 14.1367 56.679 13.8018 56.082 13.1318C55.4896 12.4574 55.1934 11.5368 55.1934 10.3701V10.1582C55.1934 9.43815 55.3255 8.79785 55.5898 8.2373C55.8542 7.67676 56.2324 7.24154 56.7246 6.93164C57.2214 6.62174 57.807 6.4668 58.4814 6.4668C59.3109 6.4668 59.999 6.71517 60.5459 7.21191C61.0973 7.70866 61.3913 8.35352 61.4277 9.14648H60.2314C60.195 8.66797 60.0127 8.27604 59.6846 7.9707C59.361 7.66081 58.96 7.50586 58.4814 7.50586C57.8389 7.50586 57.3398 7.73828 56.9844 8.20312C56.6335 8.66341 56.458 9.33105 56.458 10.2061V10.4453C56.458 11.2975 56.6335 11.9538 56.9844 12.4141C57.3353 12.8743 57.8366 13.1045 58.4883 13.1045ZM62.5146 10.2334C62.5146 9.50879 62.6559 8.8571 62.9385 8.27832C63.2256 7.69954 63.6221 7.25293 64.1279 6.93848C64.6383 6.62402 65.2194 6.4668 65.8711 6.4668C66.8783 6.4668 67.6917 6.81543 68.3115 7.5127C68.9359 8.20996 69.248 9.13737 69.248 10.2949V10.3838C69.248 11.1038 69.109 11.751 68.8311 12.3252C68.5576 12.8949 68.1634 13.3392 67.6484 13.6582C67.138 13.9772 66.5501 14.1367 65.8848 14.1367C64.8822 14.1367 64.0687 13.7881 63.4443 13.0908C62.8245 12.3936 62.5146 11.4707 62.5146 10.3223V10.2334ZM63.7861 10.3838C63.7861 11.2041 63.9753 11.8626 64.3535 12.3594C64.7363 12.8561 65.2467 13.1045 65.8848 13.1045C66.5273 13.1045 67.0378 12.8538 67.416 12.3525C67.7943 11.8467 67.9834 11.1403 67.9834 10.2334C67.9834 9.4222 67.7897 8.76595 67.4023 8.26465C67.0195 7.75879 66.5091 7.50586 65.8711 7.50586C65.2467 7.50586 64.7432 7.75423 64.3604 8.25098C63.9775 8.74772 63.7861 9.45866 63.7861 10.3838ZM70.9502 14V6.60352H73.835C74.8193 6.60352 75.5736 6.77669 76.0977 7.12305C76.6263 7.46484 76.8906 7.96842 76.8906 8.63379C76.8906 8.97559 76.7881 9.28548 76.583 9.56348C76.3779 9.83691 76.0749 10.0465 75.6738 10.1924C76.1204 10.2972 76.4782 10.5023 76.7471 10.8076C77.0205 11.113 77.1572 11.4775 77.1572 11.9014C77.1572 12.5804 76.9066 13.0999 76.4053 13.46C75.9085 13.82 75.2044 14 74.293 14H70.9502ZM72.2148 10.7529V12.9814H74.3066C74.8353 12.9814 75.2295 12.8835 75.4893 12.6875C75.7536 12.4915 75.8857 12.2158 75.8857 11.8604C75.8857 11.1221 75.3434 10.7529 74.2588 10.7529H72.2148ZM72.2148 9.74121H73.8486C75.0335 9.74121 75.626 9.39486 75.626 8.70215C75.626 8.00944 75.0654 7.65169 73.9443 7.62891H72.2148V9.74121Z" fill="#5D6C7B"/>
<defs>
<clipPath id="clip0_3656_9132">
<rect width="18" height="18" fill="white"/>
</clipPath>
</defs>
</svg>
