<svg width="155" height="26" viewBox="0 0 155 26" fill="none" xmlns="http://www.w3.org/2000/svg">
<path d="M41.6784 10.008L44.1584 9.272V19H45.5184V7.64L41.6784 8.6V10.008Z" fill="white"/>
<path d="M112.868 15.32C112.868 14.5733 112.724 13.9173 112.436 13.352C112.148 12.7867 111.748 12.344 111.236 12.024C110.735 11.704 110.164 11.544 109.524 11.544C109.247 11.544 108.964 11.5813 108.676 11.656C108.399 11.72 108.127 11.8213 107.86 11.96L108.612 9H112.836V7.8H107.556L106.084 13.768C106.468 13.5013 106.804 13.2987 107.092 13.16C107.391 13.0107 107.684 12.9093 107.972 12.856C108.271 12.792 108.596 12.76 108.948 12.76C109.428 12.76 109.855 12.8667 110.228 13.08C110.612 13.2933 110.911 13.592 111.124 13.976C111.348 14.36 111.46 14.808 111.46 15.32C111.46 15.832 111.359 16.28 111.156 16.664C110.964 17.048 110.682 17.3467 110.308 17.56C109.935 17.7733 109.482 17.88 108.948 17.88C108.543 17.88 108.154 17.7947 107.78 17.624C107.407 17.4427 107.076 17.2133 106.788 16.936C106.511 16.648 106.287 16.344 106.116 16.024L104.964 16.808C105.21 17.2347 105.508 17.6293 105.86 17.992C106.223 18.344 106.655 18.6267 107.156 18.84C107.668 19.0533 108.266 19.16 108.948 19.16C109.492 19.16 109.999 19.08 110.468 18.92C110.938 18.76 111.354 18.52 111.716 18.2C112.079 17.88 112.362 17.48 112.564 17C112.767 16.52 112.868 15.96 112.868 15.32Z" fill="white"/>
<line x1="60" y1="14" x2="92" y2="14" stroke="#8E91F2" stroke-width="2" stroke-linecap="round"/>
<line x1="60" y1="14" x2="73" y2="14" stroke="white" stroke-width="2" stroke-linecap="round"/>
<path d="M145.53 13.5303C145.823 13.2374 145.823 12.7626 145.53 12.4697L140.757 7.6967C140.464 7.40381 139.99 7.40381 139.697 7.6967C139.404 7.98959 139.404 8.46447 139.697 8.75736L143.939 13L139.697 17.2426C139.404 17.5355 139.404 18.0104 139.697 18.3033C139.99 18.5962 140.464 18.5962 140.757 18.3033L145.53 13.5303ZM144 13.75H145V12.25H144V13.75Z" fill="white"/>
<circle cx="142" cy="13" r="12.5" stroke="white" stroke-opacity="0.2"/>
<path d="M9.46967 13.5303C9.17678 13.2374 9.17678 12.7626 9.46967 12.4697L14.2426 7.6967C14.5355 7.40381 15.0104 7.40381 15.3033 7.6967C15.5962 7.98959 15.5962 8.46447 15.3033 8.75736L11.0607 13L15.3033 17.2426C15.5962 17.5355 15.5962 18.0104 15.3033 18.3033C15.0104 18.5962 14.5355 18.5962 14.2426 18.3033L9.46967 13.5303ZM11 13.75H10V12.25H11V13.75Z" fill="white"/>
<circle r="12.5" transform="matrix(-1 0 0 1 13 13)" stroke="white" stroke-opacity="0.2"/>
</svg>
