<svg width="79" height="18" viewBox="0 0 79 18" fill="none" xmlns="http://www.w3.org/2000/svg">
<path d="M8.47243 4.56419V1.23584C6.43963 1.35252 4.53332 2.14245 3.01172 3.49853L5.36494 5.85175C6.25052 5.11452 7.32585 4.66895 8.47243 4.56419Z" fill="#5D6C7B"/>
<path d="M4.61876 6.59732L2.26557 4.24414C0.908332 5.76531 0.117422 7.67176 0 9.70505H3.32849C3.43396 8.55822 3.88044 7.48283 4.61876 6.59732Z" fill="#5D6C7B"/>
<path d="M14.6692 9.70505H17.9977C17.8802 7.67176 17.0894 5.76531 15.7321 4.24414L13.3789 6.59732C14.1172 7.4828 14.5637 8.55822 14.6692 9.70505Z" fill="#5D6C7B"/>
<path d="M14.6696 10.7598C14.4951 12.6757 13.4434 13.8447 13.0258 14.2622C12.8195 14.4685 12.8195 14.803 13.0258 15.0093L14.6259 16.6094C14.729 16.7126 14.8642 16.7641 14.9994 16.7641C15.1346 16.7641 15.2697 16.7126 15.3729 16.6094C16.9523 15.0302 17.8732 12.9695 17.9992 10.7598H14.6696Z" fill="#5D6C7B"/>
<path d="M3.27189 13.7856C3.41919 13.5541 3.64215 13.2055 3.90962 12.7931C3.63544 12.2496 3.40358 11.5721 3.32965 10.7598H0C0.126035 12.9695 1.04695 15.0302 2.62628 16.6094C2.72943 16.7126 2.8646 16.7642 2.99978 16.7642C3.13495 16.7642 3.27016 16.7126 3.37331 16.6094L3.92119 16.0615C3.76249 15.9851 3.61607 15.8819 3.48785 15.7537C2.95952 15.2253 2.87068 14.416 3.27189 13.7856Z" fill="#5D6C7B"/>
<path d="M9.52734 1.23584V4.56419C10.6739 4.66895 11.7493 5.11449 12.6348 5.85175L14.9881 3.49853C13.4665 2.14241 11.5601 1.35252 9.52734 1.23584Z" fill="#5D6C7B"/>
<path d="M7.82725 9.06949C7.01106 9.88568 4.44992 13.8968 4.16059 14.3515C4.02787 14.56 4.05783 14.8327 4.23259 15.0075C4.40735 15.1823 4.68006 15.2123 4.88861 15.0795C5.34328 14.7902 9.35448 12.2291 10.1707 11.4129C10.8167 10.7668 10.8167 9.71559 10.1707 9.06953C9.5246 8.42346 8.47332 8.42343 7.82725 9.06949Z" fill="#5D6C7B"/>
<path d="M33.79 4.04004V5.11328H33.5576C32.5732 5.13151 31.7894 5.42318 31.2061 5.98828C30.6227 6.55339 30.2855 7.34863 30.1943 8.37402C30.7184 7.77246 31.4339 7.47168 32.3408 7.47168C33.2067 7.47168 33.8971 7.77702 34.4121 8.3877C34.9316 8.99837 35.1914 9.78678 35.1914 10.7529C35.1914 11.7783 34.9111 12.5986 34.3506 13.2139C33.7946 13.8291 33.0472 14.1367 32.1084 14.1367C31.1559 14.1367 30.3835 13.7721 29.791 13.043C29.1986 12.3092 28.9023 11.3659 28.9023 10.2129V9.72754C28.9023 7.89551 29.292 6.49642 30.0713 5.53027C30.8551 4.55957 32.0195 4.06283 33.5645 4.04004H33.79ZM32.1289 8.52441C31.696 8.52441 31.2972 8.6543 30.9326 8.91406C30.568 9.17383 30.3151 9.49967 30.1738 9.8916V10.3564C30.1738 11.1768 30.3584 11.8376 30.7275 12.3389C31.0967 12.8402 31.557 13.0908 32.1084 13.0908C32.6781 13.0908 33.1247 12.8812 33.4482 12.4619C33.7764 12.0426 33.9404 11.4935 33.9404 10.8145C33.9404 10.1309 33.7741 9.57943 33.4414 9.16016C33.1133 8.73633 32.6758 8.52441 32.1289 8.52441ZM42.9297 9.75488C42.9297 11.236 42.6768 12.3366 42.1709 13.0566C41.665 13.7767 40.8743 14.1367 39.7988 14.1367C38.737 14.1367 37.9508 13.7858 37.4404 13.084C36.93 12.3776 36.6657 11.3249 36.6475 9.92578V8.2373C36.6475 6.77441 36.9004 5.6875 37.4062 4.97656C37.9121 4.26562 38.7051 3.91016 39.7852 3.91016C40.8561 3.91016 41.6445 4.25423 42.1504 4.94238C42.6562 5.62598 42.916 6.68327 42.9297 8.11426V9.75488ZM41.665 8.02539C41.665 6.95443 41.5146 6.17513 41.2139 5.6875C40.9131 5.19531 40.4368 4.94922 39.7852 4.94922C39.138 4.94922 38.6663 5.19303 38.3701 5.68066C38.0739 6.16829 37.9212 6.91797 37.9121 7.92969V9.95312C37.9121 11.0286 38.0671 11.8239 38.377 12.3389C38.6914 12.8493 39.1654 13.1045 39.7988 13.1045C40.4232 13.1045 40.8857 12.863 41.1865 12.3799C41.4919 11.8968 41.6514 11.1357 41.665 10.0967V8.02539ZM50.4561 10.8486H49.5332V14H48.2617V6.60352H49.5332V9.73438H50.3604L52.8486 6.60352H54.3799L51.4541 10.1582L54.626 14H53.0195L50.4561 10.8486ZM59.9717 12.3252L62.4873 6.60352H64.0664V14H62.8018V8.62012L60.4092 14H59.5342L57.0938 8.50391V14H55.8291V6.60352H57.4697L59.9717 12.3252ZM66.3564 14.8545H65.2695L69.4258 4.04688H70.5059L66.3564 14.8545ZM77.458 14H76.1865V11.3203C75.6305 11.4661 75.0609 11.5391 74.4775 11.5391C73.5524 11.5391 72.846 11.3021 72.3584 10.8281C71.8753 10.3542 71.6292 9.67969 71.6201 8.80469V6.59668H72.8848V8.8457C72.9076 9.94857 73.4385 10.5 74.4775 10.5C75.0609 10.5 75.6305 10.4271 76.1865 10.2812V6.60352H77.458V14Z" fill="#5D6C7B"/>
</svg>
