<svg width="40" height="40" viewBox="0 0 40 40" fill="none" xmlns="http://www.w3.org/2000/svg">
<path d="M0.75 0.75H32C33.4125 0.75 34.4268 0.750583 35.2229 0.81563C36.0103 0.879962 36.518 1.00359 36.9295 1.21322C37.7291 1.62068 38.3793 2.27085 38.7868 3.07054C38.9964 3.48197 39.12 3.9897 39.1844 4.77708C39.2494 5.57322 39.25 6.58749 39.25 8V32C39.25 33.4125 39.2494 34.4268 39.1844 35.2229C39.12 36.0103 38.9964 36.518 38.7868 36.9295C38.3793 37.7291 37.7291 38.3793 36.9295 38.7868C36.518 38.9964 36.0103 39.12 35.2229 39.1844C34.4268 39.2494 33.4125 39.25 32 39.25H0.75V0.75Z" fill="#6F73EE" stroke="#6F73EE" stroke-width="1.5"/>
</svg>
