<svg width="41" height="25" viewBox="0 0 41 25" fill="none" xmlns="http://www.w3.org/2000/svg">
<rect width="41" height="25" rx="5" fill="#EE685F"/>
<path d="M14.292 8.6L12.684 11.432L11.112 8.6H9.396L11.892 12.632L9.096 17H10.812L12.672 13.772L14.472 17H16.2L13.476 12.632L16.02 8.6H14.292ZM24.7008 10.124L24.7608 8.18L17.2968 15.464L17.2368 17.42L24.7008 10.124ZM18.6288 8.6H17.2368V17.42L18.6288 15.824V8.6ZM24.7608 8.18L23.3688 9.8V17H24.7608V8.18ZM25.7952 9.908H28.0152V17H29.4312V9.908H31.6512V8.6H25.7952V9.908Z" fill="white"/>
</svg>
